<?xml version="1.0" encoding="utf-8"?>
<!-- Generator: Adobe Illustrator 27.5.0, SVG Export Plug-In . SVG Version: 6.00 Build 0)  -->
<svg version="1.1" xmlns="http://www.w3.org/2000/svg" xmlns:xlink="http://www.w3.org/1999/xlink" x="0px" y="0px"
	 viewBox="0 0 500 500" style="enable-background:new 0 0 500 500;" xml:space="preserve">
<g id="BACKGROUND_2_1_">
</g>
<g id="BACKGROUND_1">
	<g>
		<defs>
			<rect id="SVGID_00000122690833094359538440000004444430875733666959_" width="500" height="500"/>
		</defs>
		<clipPath id="SVGID_00000038402626190020274450000003783617055604353694_">
			<use xlink:href="#SVGID_00000122690833094359538440000004444430875733666959_"  style="overflow:visible;"/>
		</clipPath>
		<g style="clip-path:url(#SVGID_00000038402626190020274450000003783617055604353694_);">
			<rect x="-131.385" style="fill:#234E66;" width="750" height="500"/>
			<linearGradient id="SVGID_1_" gradientUnits="userSpaceOnUse" x1="572.1334" y1="-147.3494" x2="95.7052" y2="175.5321">
				<stop  offset="0.287" style="stop-color:#2C6280"/>
				<stop  offset="0.4273" style="stop-color:#2A5C7A"/>
				<stop  offset="0.6232" style="stop-color:#234D67"/>
				<stop  offset="0.7264" style="stop-color:#1F425B"/>
				<stop  offset="1" style="stop-color:#111E33"/>
			</linearGradient>
			<polygon style="fill:url(#SVGID_1_);" points="191.045,0 24.334,188.709 25.045,189.571 518.378,0 			"/>
			
				<linearGradient id="SVGID_00000126285624191521070600000002912269587615550090_" gradientUnits="userSpaceOnUse" x1="46.0404" y1="295.177" x2="319.5927" y2="163.2316">
				<stop  offset="0.0923" style="stop-color:#2C6280"/>
				<stop  offset="0.3558" style="stop-color:#2B5F7D"/>
				<stop  offset="0.5453" style="stop-color:#285774"/>
				<stop  offset="0.7117" style="stop-color:#224964"/>
				<stop  offset="0.8636" style="stop-color:#1A364E"/>
				<stop  offset="1" style="stop-color:#111E33"/>
			</linearGradient>
			<polygon style="fill:url(#SVGID_00000126285624191521070600000002912269587615550090_);" points="24.334,188.709 162.378,356 
				163.212,355.167 372.294,146.085 249.303,102.778 			"/>
			
				<linearGradient id="SVGID_00000067194892222568761140000014337819102045827003_" gradientUnits="userSpaceOnUse" x1="-131.3851" y1="130.2849" x2="24.3338" y2="130.2849">
				<stop  offset="0" style="stop-color:#234E66"/>
				<stop  offset="1" style="stop-color:#111E33"/>
			</linearGradient>
			<polygon style="fill:url(#SVGID_00000067194892222568761140000014337819102045827003_);" points="-131.385,0 24.334,188.709 
				-131.385,260.57 			"/>
			
				<linearGradient id="SVGID_00000109014821626106140000000008400902350013341887_" gradientUnits="userSpaceOnUse" x1="-131.3851" y1="272.3547" x2="162.3784" y2="272.3547">
				<stop  offset="0" style="stop-color:#2C6280"/>
				<stop  offset="1" style="stop-color:#111E33"/>
			</linearGradient>
			<polygon style="fill:url(#SVGID_00000109014821626106140000000008400902350013341887_);" points="24.334,188.709 
				-131.385,260.57 162.378,356 			"/>
			<g>
				<polygon style="fill:#2C6280;" points="58.045,322.107 61.045,323.082 61.045,233.198 58.045,229.563 				"/>
				<polygon style="fill:#2C6280;" points="13.045,307.488 16.045,308.463 16.045,192.534 13.045,193.919 				"/>
				<polygon style="fill:#2C6280;" points="76.045,327.954 79.045,328.929 79.045,255.012 76.045,251.376 				"/>
				<polygon style="fill:#2C6280;" points="67.045,325.031 70.045,326.005 70.045,244.105 67.045,240.469 				"/>
				<polygon style="fill:#2C6280;" points="49.045,319.183 52.045,320.158 52.045,222.292 49.045,218.656 				"/>
				<polygon style="fill:#2C6280;" points="22.045,189.766 22.045,310.412 25.045,311.387 25.045,189.571 24.334,188.709 				"/>
				<polygon style="fill:#2C6280;" points="31.045,313.336 34.045,314.31 34.045,200.478 31.045,196.842 				"/>
				<polygon style="fill:#2C6280;" points="85.045,330.878 88.045,331.853 88.045,265.918 85.045,262.283 				"/>
				<polygon style="fill:#2C6280;" points="148.045,351.344 151.045,352.318 151.045,342.266 148.045,338.63 				"/>
				<polygon style="fill:#2C6280;" points="139.045,348.42 142.045,349.395 142.045,331.359 139.045,327.723 				"/>
				<polygon style="fill:#2C6280;" points="130.045,345.496 133.045,346.471 133.045,320.452 130.045,316.817 				"/>
				<polygon style="fill:#2C6280;" points="94.045,333.802 97.045,334.776 97.045,276.825 94.045,273.19 				"/>
				<polygon style="fill:#2C6280;" points="157.045,349.537 157.045,354.267 160.045,355.242 160.045,353.172 				"/>
				<polygon style="fill:#2C6280;" points="103.045,336.725 106.045,337.7 106.045,287.732 103.045,284.096 				"/>
				<polygon style="fill:#2C6280;" points="112.045,339.649 115.045,340.624 115.045,298.639 112.045,295.003 				"/>
				<polygon style="fill:#2C6280;" points="121.045,342.573 124.045,343.547 124.045,309.546 121.045,305.91 				"/>
				<polygon style="fill:#2C6280;" points="40.045,316.26 43.045,317.234 43.045,211.385 40.045,207.749 				"/>
				<polygon style="fill:#2C6280;" points="4.045,304.565 7.045,305.539 7.045,196.688 4.045,198.072 				"/>
			</g>
			
				<linearGradient id="SVGID_00000161622381108593711370000008851795405399787911_" gradientUnits="userSpaceOnUse" x1="-131.3851" y1="380.2849" x2="276.6351" y2="380.2849">
				<stop  offset="0" style="stop-color:#2C6280"/>
				<stop  offset="1" style="stop-color:#111E33"/>
			</linearGradient>
			<polygon style="fill:url(#SVGID_00000161622381108593711370000008851795405399787911_);" points="-131.385,260.57 
				276.635,390.826 108.045,500 			"/>
			
				<linearGradient id="SVGID_00000111175548171590236740000005094108928838115247_" gradientUnits="userSpaceOnUse" x1="-111.1463" y1="475.414" x2="12.0771" y2="357.5755">
				<stop  offset="0" style="stop-color:#234E66"/>
				<stop  offset="1" style="stop-color:#111E33"/>
			</linearGradient>
			<polygon style="fill:url(#SVGID_00000111175548171590236740000005094108928838115247_);" points="-131.385,260.57 -131.385,500 
				108.045,500 			"/>
			
				<linearGradient id="SVGID_00000022518485989293540560000009581231809545172911_" gradientUnits="userSpaceOnUse" x1="-53.0799" y1="94.3547" x2="191.0451" y2="94.3547">
				<stop  offset="0" style="stop-color:#2C6280"/>
				<stop  offset="0.2045" style="stop-color:#2A5D7B"/>
				<stop  offset="0.4545" style="stop-color:#25506C"/>
				<stop  offset="0.7273" style="stop-color:#1C3A53"/>
				<stop  offset="1" style="stop-color:#111E33"/>
			</linearGradient>
			<polygon style="fill:url(#SVGID_00000022518485989293540560000009581231809545172911_);" points="24.334,188.709 191.045,0 
				-53.08,94.938 			"/>
			
				<linearGradient id="SVGID_00000150103555249352686270000003031532945049939615_" gradientUnits="userSpaceOnUse" x1="-131.3851" y1="467.6255" x2="108.0451" y2="467.6255">
				<stop  offset="0" style="stop-color:#2C6280"/>
				<stop  offset="0.1977" style="stop-color:#2A5C7A"/>
				<stop  offset="0.4742" style="stop-color:#234C67"/>
				<stop  offset="0.7958" style="stop-color:#19324A"/>
				<stop  offset="1" style="stop-color:#111E33"/>
			</linearGradient>
			<polygon style="fill:url(#SVGID_00000150103555249352686270000003031532945049939615_);" points="43.296,435.251 -131.385,500 
				108.045,500 			"/>
			
				<linearGradient id="SVGID_00000049934830065156415780000007023896879919302589_" gradientUnits="userSpaceOnUse" x1="249.303" y1="73.0424" x2="518.3784" y2="73.0424">
				<stop  offset="0" style="stop-color:#2C6280"/>
				<stop  offset="0.2903" style="stop-color:#2B5F7D"/>
				<stop  offset="0.4991" style="stop-color:#285774"/>
				<stop  offset="0.6823" style="stop-color:#224964"/>
				<stop  offset="0.8498" style="stop-color:#1A364E"/>
				<stop  offset="1" style="stop-color:#111E33"/>
			</linearGradient>
			<polygon style="fill:url(#SVGID_00000049934830065156415780000007023896879919302589_);" points="518.378,0 249.303,102.778 
				372.294,146.085 			"/>
			<g>
				<polygon style="fill:#2C6280;" points="455.074,63.304 457.195,61.183 429.834,33.821 426.764,34.994 				"/>
				<polygon style="fill:#2C6280;" points="461.438,56.94 463.56,54.819 439.044,30.303 435.974,31.476 				"/>
				<polygon style="fill:#2C6280;" points="467.802,50.576 469.924,48.455 448.254,26.785 445.184,27.958 				"/>
				<polygon style="fill:#2C6280;" points="435.982,82.396 438.104,80.275 402.204,44.375 399.134,45.548 				"/>
				<polygon style="fill:#2C6280;" points="442.346,76.032 444.468,73.911 411.414,40.857 408.344,42.03 				"/>
				<polygon style="fill:#2C6280;" points="448.71,69.668 450.832,67.547 420.624,37.339 417.554,38.512 				"/>
				<polygon style="fill:#2C6280;" points="429.618,88.76 431.74,86.639 392.994,47.893 389.924,49.065 				"/>
				<polygon style="fill:#2C6280;" points="474.166,44.212 476.287,42.091 457.464,23.267 454.394,24.44 				"/>
				<polygon style="fill:#2C6280;" points="480.53,37.848 482.651,35.727 466.674,19.75 463.604,20.922 				"/>
				<polygon style="fill:#2C6280;" points="499.622,18.756 501.743,16.635 494.304,9.196 491.234,10.368 				"/>
				<polygon style="fill:#2C6280;" points="486.894,31.484 489.015,29.363 475.884,16.232 472.814,17.404 				"/>
				<polygon style="fill:#2C6280;" points="493.258,25.12 495.379,22.999 485.094,12.714 482.024,13.886 				"/>
				<polygon style="fill:#2C6280;" points="293.864,118.469 300.413,120.775 273.264,93.626 270.194,94.799 				"/>
				<polygon style="fill:#2C6280;" points="333.155,132.303 339.703,134.609 291.684,86.59 288.614,87.763 				"/>
				<polygon style="fill:#2C6280;" points="378.707,139.672 380.828,137.55 319.314,76.036 316.244,77.209 				"/>
				<polygon style="fill:#2C6280;" points="372.343,146.036 374.464,143.914 310.104,79.554 307.034,80.727 				"/>
				<polygon style="fill:#2C6280;" points="352.8,139.221 359.348,141.527 300.894,83.072 297.824,84.245 				"/>
				<polygon style="fill:#2C6280;" points="313.509,125.386 320.058,127.692 282.474,90.108 279.404,91.281 				"/>
				<polygon style="fill:#2C6280;" points="423.254,95.124 425.376,93.003 383.784,51.411 380.714,52.583 				"/>
				<polygon style="fill:#2C6280;" points="274.219,111.551 280.768,113.857 264.054,97.144 260.984,98.316 				"/>
				<polygon style="fill:#2C6280;" points="254.574,104.634 261.122,106.94 254.844,100.662 251.774,101.834 				"/>
				<polygon style="fill:#2C6280;" points="410.527,107.852 412.648,105.731 365.364,58.447 362.294,59.619 				"/>
				<polygon style="fill:#2C6280;" points="416.891,101.488 419.012,99.367 374.574,54.929 371.504,56.101 				"/>
				<polygon style="fill:#2C6280;" points="385.071,133.308 387.192,131.186 328.524,72.518 325.454,73.691 				"/>
				<polygon style="fill:#2C6280;" points="404.163,114.216 406.284,112.094 356.154,61.965 353.084,63.137 				"/>
				<polygon style="fill:#2C6280;" points="391.435,126.944 393.556,124.822 337.734,69 334.664,70.173 				"/>
				<polygon style="fill:#2C6280;" points="397.799,120.58 399.92,118.459 346.944,65.482 343.874,66.655 				"/>
			</g>
			
				<linearGradient id="SVGID_00000002376501478430473080000009741799680796579507_" gradientUnits="userSpaceOnUse" x1="580.0876" y1="357.2027" x2="447.9895" y2="78.563">
				<stop  offset="0.287" style="stop-color:#2C6280"/>
				<stop  offset="0.4273" style="stop-color:#2A5C7A"/>
				<stop  offset="0.6232" style="stop-color:#234D67"/>
				<stop  offset="0.7264" style="stop-color:#1F425B"/>
				<stop  offset="1" style="stop-color:#111E33"/>
			</linearGradient>
			<polygon style="fill:url(#SVGID_00000002376501478430473080000009741799680796579507_);" points="372.343,146.036 618.615,500 
				518.378,0 			"/>
			
				<linearGradient id="SVGID_00000179623061065432221350000011492512005254798470_" gradientUnits="userSpaceOnUse" x1="444.7705" y1="441.9166" x2="556.5753" y2="389.1915">
				<stop  offset="0.287" style="stop-color:#2C6280"/>
				<stop  offset="0.4273" style="stop-color:#2A5C7A"/>
				<stop  offset="0.6232" style="stop-color:#234D67"/>
				<stop  offset="0.7264" style="stop-color:#1F425B"/>
				<stop  offset="1" style="stop-color:#111E33"/>
			</linearGradient>
			<polygon style="fill:url(#SVGID_00000179623061065432221350000011492512005254798470_);" points="380.591,332.117 
				493.545,320.333 618.615,500 421.09,436.939 			"/>
			
				<linearGradient id="SVGID_00000007426196019733633450000002890804693741294763_" gradientUnits="userSpaceOnUse" x1="341.1565" y1="385.4531" x2="305.1565" y2="248.1197">
				<stop  offset="0" style="stop-color:#234E66"/>
				<stop  offset="0.3219" style="stop-color:#224B63"/>
				<stop  offset="0.5734" style="stop-color:#1E4259"/>
				<stop  offset="0.8005" style="stop-color:#193249"/>
				<stop  offset="1" style="stop-color:#111E33"/>
			</linearGradient>
			<polygon style="fill:url(#SVGID_00000007426196019733633450000002890804693741294763_);" points="163.649,354.75 
				493.545,320.333 372.343,146.036 			"/>
			
				<linearGradient id="SVGID_00000019677349452630692080000007883823670567551120_" gradientUnits="userSpaceOnUse" x1="72.1056" y1="-55.7627" x2="-14.7353" y2="58.7829">
				<stop  offset="0.0219" style="stop-color:#2C6280"/>
				<stop  offset="0.287" style="stop-color:#2C6280"/>
				<stop  offset="0.4273" style="stop-color:#2A5C7A"/>
				<stop  offset="0.6232" style="stop-color:#234D67"/>
				<stop  offset="0.7264" style="stop-color:#1F425B"/>
				<stop  offset="1" style="stop-color:#111E33"/>
			</linearGradient>
			<polygon style="fill:url(#SVGID_00000019677349452630692080000007883823670567551120_);" points="-131.385,0 191.045,0 
				-53.08,94.938 			"/>
			<g>
				<polygon style="fill:#2C6280;" points="51.835,54.137 58.778,51.437 110.215,0 105.972,0 				"/>
				<polygon style="fill:#2C6280;" points="-31.475,86.536 -24.533,83.836 59.303,0 55.061,0 				"/>
				<polygon style="fill:#2C6280;" points="31.008,62.237 37.95,59.537 97.487,0 93.244,0 				"/>
				<polygon style="fill:#2C6280;" points="10.18,70.336 17.122,67.636 84.759,0 80.517,0 				"/>
				<polygon style="fill:#2C6280;" points="-10.648,78.436 -3.705,75.736 72.031,0 67.789,0 				"/>
				<polygon style="fill:#2C6280;" points="72.663,46.038 79.605,43.338 122.943,0 118.7,0 				"/>
				<polygon style="fill:#2C6280;" points="155.973,13.639 162.915,10.939 173.855,0 169.612,0 				"/>
				<polygon style="fill:#2C6280;" points="135.145,21.739 142.088,19.039 161.127,0 156.884,0 				"/>
				<polygon style="fill:#2C6280;" points="176.8,5.54 183.743,2.84 186.582,0 182.34,0 				"/>
				<polygon style="fill:#2C6280;" points="114.318,29.838 121.26,27.139 148.399,0 144.156,0 				"/>
				<polygon style="fill:#2C6280;" points="93.49,37.938 100.433,35.238 135.671,0 131.428,0 				"/>
				<polygon style="fill:#2C6280;" points="-52.302,94.635 -45.36,91.935 46.575,0 42.333,0 				"/>
				<polygon style="fill:#2C6280;" points="-64.371,81.248 -62.453,83.573 21.12,0 16.877,0 				"/>
				<polygon style="fill:#2C6280;" points="-70.124,74.273 -68.206,76.598 8.392,0 4.149,0 				"/>
				<polygon style="fill:#2C6280;" points="-58.618,88.223 -56.701,90.548 33.847,0 29.605,0 				"/>
			</g>
			
				<linearGradient id="SVGID_00000010299466372334616660000012042582730614899341_" gradientUnits="userSpaceOnUse" x1="108.0451" y1="445.4131" x2="618.615" y2="445.4131">
				<stop  offset="0" style="stop-color:#2C6280"/>
				<stop  offset="1" style="stop-color:#111E33"/>
			</linearGradient>
			<polygon style="fill:url(#SVGID_00000010299466372334616660000012042582730614899341_);" points="276.635,390.826 108.045,500 
				618.615,500 			"/>
			
				<linearGradient id="SVGID_00000148649033556863045450000004275804373424108178_" gradientUnits="userSpaceOnUse" x1="163.6494" y1="384.5283" x2="421.0898" y2="384.5283">
				<stop  offset="0" style="stop-color:#2C6280"/>
				<stop  offset="1" style="stop-color:#111E33"/>
			</linearGradient>
			<polygon style="fill:url(#SVGID_00000148649033556863045450000004275804373424108178_);" points="421.09,436.939 
				380.591,332.117 163.649,354.75 			"/>
			
				<linearGradient id="SVGID_00000092457919129652065540000009487078202511812481_" gradientUnits="userSpaceOnUse" x1="522.2738" y1="-113.6719" x2="271.2677" y2="56.4382">
				<stop  offset="0.287" style="stop-color:#2C6280"/>
				<stop  offset="0.4273" style="stop-color:#2A5C7A"/>
				<stop  offset="0.6232" style="stop-color:#234D67"/>
				<stop  offset="0.7264" style="stop-color:#1F425B"/>
				<stop  offset="1" style="stop-color:#111E33"/>
			</linearGradient>
			<polygon style="fill:url(#SVGID_00000092457919129652065540000009487078202511812481_);" points="518.378,0 190.712,0 
				348.854,65.142 			"/>
			<g>
				<polygon style="fill:#2C6280;" points="413.384,416.996 414.544,419.996 562.922,419.996 560.834,416.996 				"/>
				<polygon style="fill:#2C6280;" points="471.384,452.996 480.781,455.996 587.983,455.996 585.894,452.996 				"/>
				<polygon style="fill:#2C6280;" points="443.194,443.996 452.591,446.996 581.718,446.996 579.629,443.996 				"/>
				<polygon style="fill:#2C6280;" points="420.339,434.996 421.09,436.939 424.4,437.996 575.453,437.996 573.364,434.996 				"/>
				<polygon style="fill:#2C6280;" points="416.862,425.996 418.021,428.996 569.188,428.996 567.099,425.996 				"/>
				<polygon style="fill:#2C6280;" points="499.575,461.996 508.972,464.996 594.248,464.996 592.159,461.996 				"/>
				<polygon style="fill:#2C6280;" points="392.521,362.996 393.68,365.996 525.332,365.996 523.243,362.996 				"/>
				<polygon style="fill:#2C6280;" points="382.089,335.996 383.248,338.996 506.537,338.996 504.448,335.996 				"/>
				<polygon style="fill:#2C6280;" points="389.044,353.996 390.203,356.996 519.067,356.996 516.978,353.996 				"/>
				<polygon style="fill:#2C6280;" points="385.566,344.996 386.725,347.996 512.802,347.996 510.713,344.996 				"/>
				<polygon style="fill:#2C6280;" points="429.682,326.996 400.926,329.996 500.271,329.996 498.183,326.996 				"/>
				<polygon style="fill:#2C6280;" points="409.907,407.996 411.066,410.996 556.657,410.996 554.569,407.996 				"/>
				<polygon style="fill:#2C6280;" points="487.194,320.996 494.006,320.996 493.545,320.333 				"/>
				<polygon style="fill:#2C6280;" points="402.953,389.996 404.112,392.996 544.127,392.996 542.039,389.996 				"/>
				<polygon style="fill:#2C6280;" points="395.998,371.996 397.157,374.996 531.597,374.996 529.508,371.996 				"/>
				<polygon style="fill:#2C6280;" points="406.43,398.996 407.589,401.996 550.392,401.996 548.304,398.996 				"/>
				<polygon style="fill:#2C6280;" points="399.475,380.996 400.634,383.996 537.862,383.996 535.774,380.996 				"/>
			</g>
			
				<linearGradient id="SVGID_00000033333062247729148690000014924424969526153367_" gradientUnits="userSpaceOnUse" x1="177.2991" y1="173.8363" x2="120.8819" y2="109.4383">
				<stop  offset="0.287" style="stop-color:#2C6280"/>
				<stop  offset="0.4273" style="stop-color:#2A5C7A"/>
				<stop  offset="0.6232" style="stop-color:#234D67"/>
				<stop  offset="0.7264" style="stop-color:#1F425B"/>
				<stop  offset="1" style="stop-color:#111E33"/>
			</linearGradient>
			<polygon style="fill:url(#SVGID_00000033333062247729148690000014924424969526153367_);" points="25.045,189.571 
				191.045,125.783 191.045,0 24.334,188.709 			"/>
		</g>
	</g>
</g>
<g id="DESIGNED_BY_FREEPIK">
	<g>
		<g id="XMLID_29_">
			<g id="XMLID_48_">
				<path id="XMLID_56_" style="fill:#F9FBFC;" d="M260.104,473.536c-0.432,0.443-0.803,0.931-1.108,1.453l-0.465-0.241
					c-0.067-0.298-0.349-0.503-0.659-0.466c-0.331,0.039-0.568,0.339-0.529,0.67c0.039,0.331,0.339,0.568,0.67,0.529
					c0.066-0.008,0.127-0.026,0.184-0.052l0.451,0.234c-0.251,0.554-0.433,1.139-0.539,1.744l0.746,0.132
					c0.23-1.306,0.85-2.507,1.792-3.473L260.104,473.536z"/>
				<path id="XMLID_55_" style="fill:#F9FBFC;" d="M265.592,471.234c-0.171,0-0.341,0.006-0.51,0.017l-0.074-0.626
					c0.188-0.149,0.296-0.389,0.266-0.645c-0.046-0.393-0.402-0.674-0.795-0.628c-0.393,0.046-0.674,0.402-0.628,0.795
					c0.03,0.254,0.189,0.461,0.404,0.564l0.074,0.624c-0.714,0.116-1.403,0.332-2.06,0.646l0.327,0.684
					c0.934-0.447,1.942-0.673,2.995-0.673c0.496,0,0.993,0.053,1.475,0.158l0.161-0.741
					C266.692,471.293,266.142,471.234,265.592,471.234z"/>
				<path id="XMLID_54_" style="fill:#F9FBFC;" d="M272.194,473.781c0.331-0.04,0.566-0.342,0.526-0.672
					c-0.04-0.331-0.341-0.566-0.672-0.526c-0.309,0.038-0.535,0.304-0.53,0.609l-0.416,0.363c-0.418-0.43-0.889-0.813-1.408-1.139
					l-0.404,0.641c1.134,0.715,2.021,1.726,2.563,2.925l0.69-0.313c-0.251-0.554-0.568-1.072-0.942-1.545l0.402-0.351
					C272.065,473.786,272.129,473.789,272.194,473.781z"/>
				<path id="XMLID_53_" style="fill:#F9FBFC;" d="M265.044,481.443c-0.386,0.023-0.775,0.035-1.157,0.035
					c-0.88,0-1.733-0.061-2.478-0.179c-0.39-0.062-0.846-0.155-1.27-0.292c1.046,1.861,3.069,3.125,5.388,3.125
					c2.855,0,5.262-1.916,5.95-4.504c-0.682,0.449-1.505,0.825-2.459,1.123C267.839,481.118,266.463,481.357,265.044,481.443z"/>
				<path id="XMLID_49_" style="fill:#F9FBFC;" d="M265.592,472.75c-3.352,0-6.08,2.666-6.08,5.943c0,0.426,0.046,0.849,0.137,1.261
					c0.673,0.483,2.706,0.89,5.348,0.731c2.879-0.173,5.297-0.957,6.672-2.159c-0.006-0.195-0.021-0.39-0.045-0.582
					C271.244,474.984,268.65,472.75,265.592,472.75z M263.432,479.265c-1.02,0-1.85-0.83-1.85-1.85c0-1.02,0.83-1.85,1.85-1.85
					c1.02,0,1.85,0.83,1.85,1.85C265.282,478.435,264.452,479.265,263.432,479.265z M268.17,478.357c-0.75,0-1.36-0.61-1.36-1.36
					c0-0.75,0.61-1.361,1.36-1.361c0.75,0,1.361,0.61,1.361,1.361C269.53,477.747,268.92,478.357,268.17,478.357z"/>
			</g>
			<path id="XMLID_46_" style="fill:#F9FBFC;" d="M281.595,474.617c-0.295-0.116-0.805-0.309-1.382-0.237
				c-0.551,0.069-0.844,0.341-0.844,1.007v0.866h2.228v1.717h-2.228v5.455h-1.932v-5.455h-1.34v-1.717h1.34v-0.888
				c0-1.68,0.896-2.783,2.568-2.783c0.643,0,1.157,0.122,1.59,0.308L281.595,474.617z"/>
			<path id="XMLID_44_" style="fill:#F9FBFC;" d="M286.298,477.949c-0.177-0.03-0.358-0.046-0.526-0.046
				c-0.895,0-1.51,0.548-1.51,1.613v3.908h-1.932v-7.172h1.873v0.785c0.451-0.673,1.14-0.977,2.021-0.977
				c0.414,0,0.848,0.128,1.094,0.337L286.298,477.949z"/>
			<path id="XMLID_41_" style="fill:#F9FBFC;" d="M293.965,479.828c0,0.222-0.015,0.489-0.037,0.651h-5.085
				c0.207,1.036,0.933,1.488,1.843,1.488c0.622,0,1.295-0.252,1.813-0.688l1.133,1.243c-0.814,0.748-1.85,1.088-3.057,1.088
				c-2.198,0-3.723-1.495-3.723-3.753c0-2.258,1.48-3.797,3.627-3.797C292.544,476.06,293.958,477.592,293.965,479.828z
				 M288.851,479.161h3.175c-0.177-0.918-0.733-1.436-1.562-1.436C289.554,477.725,289.021,478.273,288.851,479.161z"/>
			<path id="XMLID_38_" style="fill:#F9FBFC;" d="M301.618,479.828c0,0.222-0.015,0.489-0.037,0.651h-5.085
				c0.207,1.036,0.932,1.488,1.843,1.488c0.622,0,1.295-0.252,1.814-0.688l1.132,1.243c-0.814,0.748-1.85,1.088-3.057,1.088
				c-2.198,0-3.723-1.495-3.723-3.753c0-2.258,1.48-3.797,3.627-3.797C300.197,476.06,301.611,477.592,301.618,479.828z
				 M296.504,479.161h3.175c-0.178-0.918-0.733-1.436-1.562-1.436C297.207,477.725,296.674,478.273,296.504,479.161z"/>
			<path id="XMLID_35_" style="fill:#F9FBFC;" d="M309.964,479.835c0,2.154-1.495,3.775-3.471,3.775
				c-0.962,0-1.643-0.378-2.109-0.933v3.708h-1.924v-10.133h1.887v0.792c0.466-0.585,1.155-0.984,2.139-0.984
				C308.469,476.06,309.964,477.681,309.964,479.835z M304.287,479.835c0,1.132,0.747,1.976,1.843,1.976
				c1.14,0,1.85-0.881,1.85-1.976c0-1.095-0.711-1.976-1.85-1.976C305.035,477.859,304.287,478.703,304.287,479.835z"/>
			<path id="XMLID_32_" style="fill:#F9FBFC;" d="M313.067,473.906c0,0.696-0.54,1.229-1.236,1.229
				c-0.696,0-1.229-0.533-1.229-1.229c0-0.696,0.533-1.243,1.229-1.243C312.527,472.663,313.067,473.211,313.067,473.906z
				 M312.809,483.425h-1.932v-7.172h1.932V483.425z"/>
			<path id="XMLID_30_" style="fill:#F9FBFC;" d="M316.032,478.806l2.702-2.554h2.368l-3.479,3.375l3.501,3.797h-2.376l-2.716-2.901
				v2.901H314.1v-10.658h1.932V478.806z"/>
		</g>
		<g>
			<path style="fill:#F9FBFC;" d="M184.412,483.36v-1.055c-0.527,0.718-1.391,1.23-2.387,1.23c-1.846,0-3.149-1.406-3.149-3.706
				c0-2.256,1.289-3.721,3.149-3.721c0.952,0,1.816,0.469,2.387,1.245v-3.765h1.099v9.77H184.412z M184.412,481.441v-3.208
				c-0.395-0.615-1.245-1.143-2.124-1.143c-1.421,0-2.27,1.172-2.27,2.739c0,1.567,0.85,2.724,2.27,2.724
				C183.168,482.554,184.017,482.056,184.412,481.441z"/>
			<path style="fill:#F9FBFC;" d="M186.932,479.815c0-2.051,1.465-3.706,3.486-3.706c2.139,0,3.398,1.67,3.398,3.794v0.279h-5.727
				c0.088,1.333,1.025,2.446,2.549,2.446c0.805,0,1.626-0.322,2.182-0.893l0.527,0.718c-0.703,0.703-1.655,1.084-2.812,1.084
				C188.44,483.535,186.932,482.027,186.932,479.815z M190.403,477.017c-1.509,0-2.256,1.274-2.314,2.358h4.643
				C192.718,478.321,192.015,477.017,190.403,477.017z"/>
			<path style="fill:#F9FBFC;" d="M194.607,482.422l0.571-0.791c0.469,0.542,1.362,1.011,2.329,1.011c1.084,0,1.67-0.513,1.67-1.216
				c0-1.714-4.38-0.659-4.38-3.281c0-1.098,0.952-2.036,2.636-2.036c1.201,0,2.051,0.454,2.622,1.025l-0.513,0.762
				c-0.424-0.513-1.201-0.894-2.109-0.894c-0.967,0-1.567,0.483-1.567,1.113c0,1.552,4.38,0.527,4.38,3.281
				c0,1.187-0.952,2.138-2.783,2.138C196.306,483.535,195.325,483.184,194.607,482.422z"/>
			<path style="fill:#F9FBFC;" d="M201.477,474.542c0-0.41,0.337-0.747,0.732-0.747c0.41,0,0.747,0.337,0.747,0.747
				c0,0.41-0.337,0.732-0.747,0.732C201.814,475.274,201.477,474.952,201.477,474.542z M201.667,483.36v-7.075h1.099v7.075H201.667z
				"/>
			<path style="fill:#F9FBFC;" d="M204.582,485.176l0.556-0.82c0.586,0.703,1.289,0.967,2.3,0.967c1.172,0,2.27-0.571,2.27-2.124
				v-1.011c-0.513,0.718-1.377,1.26-2.373,1.26c-1.845,0-3.149-1.377-3.149-3.662c0-2.27,1.289-3.676,3.149-3.676
				c0.952,0,1.802,0.469,2.373,1.245v-1.069h1.098v6.87c0,2.344-1.641,3.076-3.369,3.076
				C206.237,486.231,205.417,485.996,204.582,485.176z M209.709,481.324v-3.091c-0.381-0.615-1.23-1.143-2.109-1.143
				c-1.421,0-2.27,1.128-2.27,2.695c0,1.553,0.849,2.695,2.27,2.695C208.478,482.481,209.328,481.939,209.709,481.324z"/>
			<path style="fill:#F9FBFC;" d="M217.413,483.36v-4.629c0-1.245-0.63-1.641-1.582-1.641c-0.865,0-1.685,0.527-2.095,1.099v5.17
				h-1.099v-7.075h1.099v1.025c0.498-0.586,1.465-1.201,2.519-1.201c1.48,0,2.256,0.747,2.256,2.285v4.966H217.413z"/>
			<path style="fill:#F9FBFC;" d="M219.932,479.815c0-2.051,1.465-3.706,3.486-3.706c2.139,0,3.398,1.67,3.398,3.794v0.279h-5.727
				c0.088,1.333,1.025,2.446,2.549,2.446c0.806,0,1.626-0.322,2.183-0.893l0.527,0.718c-0.703,0.703-1.655,1.084-2.812,1.084
				C221.441,483.535,219.932,482.027,219.932,479.815z M223.404,477.017c-1.509,0-2.256,1.274-2.314,2.358h4.643
				C225.718,478.321,225.015,477.017,223.404,477.017z"/>
			<path style="fill:#F9FBFC;" d="M233.35,483.36v-1.055c-0.527,0.718-1.392,1.23-2.388,1.23c-1.846,0-3.149-1.406-3.149-3.706
				c0-2.256,1.289-3.721,3.149-3.721c0.952,0,1.817,0.469,2.388,1.245v-3.765h1.098v9.77H233.35z M233.35,481.441v-3.208
				c-0.396-0.615-1.245-1.143-2.124-1.143c-1.421,0-2.27,1.172-2.27,2.739c0,1.567,0.849,2.724,2.27,2.724
				C232.105,482.554,232.954,482.056,233.35,481.441z"/>
			<path style="fill:#F9FBFC;" d="M239.692,483.36v-9.77h1.098v3.765c0.572-0.776,1.421-1.245,2.388-1.245
				c1.845,0,3.149,1.465,3.149,3.721c0,2.299-1.304,3.706-3.149,3.706c-0.996,0-1.86-0.513-2.388-1.23v1.055H239.692z
				 M242.9,482.554c1.436,0,2.285-1.157,2.285-2.724c0-1.568-0.85-2.739-2.285-2.739c-0.864,0-1.728,0.527-2.109,1.143v3.208
				C241.171,482.056,242.036,482.554,242.9,482.554z"/>
			<path style="fill:#F9FBFC;" d="M247.528,485.132c0.161,0.073,0.425,0.117,0.601,0.117c0.483,0,0.805-0.161,1.055-0.747
				l0.469-1.069l-2.959-7.148h1.187l2.358,5.801l2.344-5.801h1.201l-3.545,8.51c-0.425,1.025-1.143,1.421-2.08,1.435
				c-0.234,0-0.601-0.044-0.806-0.103L247.528,485.132z"/>
		</g>
	</g>
</g>
</svg>
